<svg xmlns="http://www.w3.org/2000/svg" xmlns:xlink="http://www.w3.org/1999/xlink" contentStyleType="text/css" height="983" preserveAspectRatio="none" style="width:621px;height:983px;background:#FFFFFF;" version="1.1" viewBox="0 0 621 983" width="621" zoomAndPan="magnify"><defs/><g><ellipse cx="343.25" cy="20" fill="#222222" rx="10" ry="10" style="stroke:#222222;stroke-width:1.0;"/><rect fill="#F1F1F1" height="33.9688" rx="12.5" ry="12.5" style="stroke:#181818;stroke-width:0.5;" width="267" x="209.75" y="50"/><text fill="#000000" font-family="sans-serif" font-size="12" lengthAdjust="spacing" textLength="247" x="219.75" y="71.1387">Importieren der Bibliotheken und Module</text><rect fill="#F1F1F1" height="33.9688" rx="12.5" ry="12.5" style="stroke:#181818;stroke-width:0.5;" width="249" x="218.75" y="103.9688"/><text fill="#000000" font-family="sans-serif" font-size="12" lengthAdjust="spacing" textLength="229" x="228.75" y="125.1074">Initialisierung des BH1750FVI Sensors</text><polygon fill="#F1F1F1" points="278.25,157.9375,408.25,157.9375,420.25,169.9375,408.25,181.9375,278.25,181.9375,266.25,169.9375,278.25,157.9375" style="stroke:#181818;stroke-width:0.5;"/><text fill="#000000" font-family="sans-serif" font-size="11" lengthAdjust="spacing" textLength="130" x="278.25" y="173.7456">CSV-Datei vorhanden?</text><text fill="#000000" font-family="sans-serif" font-size="11" lengthAdjust="spacing" textLength="10" x="256.25" y="167.3433">ja</text><text fill="#000000" font-family="sans-serif" font-size="11" lengthAdjust="spacing" textLength="25" x="420.25" y="167.3433">nein</text><rect fill="#F1F1F1" height="33.9688" rx="12.5" ry="12.5" style="stroke:#181818;stroke-width:0.5;" width="147" x="149.5" y="191.9375"/><text fill="#000000" font-family="sans-serif" font-size="12" lengthAdjust="spacing" textLength="127" x="159.5" y="213.0762">Feldnamen festlegen</text><rect fill="#F1F1F1" height="33.9688" rx="12.5" ry="12.5" style="stroke:#181818;stroke-width:0.5;" width="294" x="316.5" y="191.9375"/><text fill="#000000" font-family="sans-serif" font-size="12" lengthAdjust="spacing" textLength="274" x="326.5" y="213.0762">CSV-Datei erstellen und Feldnamen festlegen</text><polygon fill="#F1F1F1" points="343.25,231.9063,355.25,243.9063,343.25,255.9063,331.25,243.9063,343.25,231.9063" style="stroke:#181818;stroke-width:0.5;"/><rect fill="#F1F1F1" height="33.9688" rx="12.5" ry="12.5" style="stroke:#181818;stroke-width:0.5;" width="155" x="265.75" y="319.9063"/><text fill="#000000" font-family="sans-serif" font-size="12" lengthAdjust="spacing" textLength="135" x="275.75" y="341.0449">Sensordaten auslesen</text><polygon fill="#F1F1F1" points="286.25,373.875,400.25,373.875,412.25,385.875,400.25,397.875,286.25,397.875,274.25,385.875,286.25,373.875" style="stroke:#181818;stroke-width:0.5;"/><text fill="#000000" font-family="sans-serif" font-size="11" lengthAdjust="spacing" textLength="114" x="286.25" y="389.6831">Sensordaten g端ltig?</text><text fill="#000000" font-family="sans-serif" font-size="11" lengthAdjust="spacing" textLength="10" x="264.25" y="383.2808">ja</text><text fill="#000000" font-family="sans-serif" font-size="11" lengthAdjust="spacing" textLength="25" x="412.25" y="383.2808">nein</text><rect fill="#F1F1F1" height="33.9688" rx="12.5" ry="12.5" style="stroke:#181818;stroke-width:0.5;" width="171" x="122.5" y="407.875"/><text fill="#000000" font-family="sans-serif" font-size="12" lengthAdjust="spacing" textLength="151" x="132.5" y="429.0137">Sensordaten verarbeiten</text><rect fill="#F1F1F1" height="33.9688" rx="12.5" ry="12.5" style="stroke:#181818;stroke-width:0.5;" width="245" x="85.5" y="461.8438"/><text fill="#000000" font-family="sans-serif" font-size="12" lengthAdjust="spacing" textLength="225" x="95.5" y="482.9824">Sensordaten auf LED-Matrix anzeigen</text><rect fill="#F1F1F1" height="33.9688" rx="12.5" ry="12.5" style="stroke:#181818;stroke-width:0.5;" width="254" x="81" y="515.8125"/><text fill="#000000" font-family="sans-serif" font-size="12" lengthAdjust="spacing" textLength="234" x="91" y="536.9512">Sensordaten auf LCD-Display anzeigen</text><rect fill="#F1F1F1" height="33.9688" rx="12.5" ry="12.5" style="stroke:#181818;stroke-width:0.5;" width="303" x="56.5" y="569.7813"/><text fill="#000000" font-family="sans-serif" font-size="12" lengthAdjust="spacing" textLength="283" x="66.5" y="590.9199">Sensordaten auf 7-Segment-Anzeige anzeigen</text><rect fill="#F1F1F1" height="33.9688" rx="12.5" ry="12.5" style="stroke:#181818;stroke-width:0.5;" width="169" x="123.5" y="631.332"/><text fill="#000000" font-family="sans-serif" font-size="12" lengthAdjust="spacing" textLength="149" x="133.5" y="652.4707">Lichtanalyse durchf端hren</text><rect fill="#F1F1F1" height="33.9688" rx="12.5" ry="12.5" style="stroke:#181818;stroke-width:0.5;" width="239" x="88.5" y="733.7031"/><text fill="#000000" font-family="sans-serif" font-size="12" lengthAdjust="spacing" textLength="219" x="98.5" y="754.8418">Sensordaten in CSV-Datei schreiben</text><polygon fill="#F1F1F1" points="126,685.3008,290,685.3008,302,697.3008,290,709.3008,126,709.3008,114,697.3008,126,685.3008" style="stroke:#181818;stroke-width:0.5;"/><text fill="#000000" font-family="sans-serif" font-size="11" lengthAdjust="spacing" textLength="10" x="212" y="719.5112">ja</text><text fill="#000000" font-family="sans-serif" font-size="11" lengthAdjust="spacing" textLength="164" x="126" y="701.1089">Alle Sensordaten verf端gbar?</text><polygon fill="#F1F1F1" points="208,787.6719,220,799.6719,208,811.6719,196,799.6719,208,787.6719" style="stroke:#181818;stroke-width:0.5;"/><rect fill="#F1F1F1" height="33.9688" rx="12.5" ry="12.5" style="stroke:#181818;stroke-width:0.5;" width="55" x="180.5" y="831.6719"/><text fill="#000000" font-family="sans-serif" font-size="12" lengthAdjust="spacing" textLength="35" x="190.5" y="852.8105">Pause</text><rect fill="#F1F1F1" height="33.9688" rx="12.5" ry="12.5" style="stroke:#181818;stroke-width:0.5;" width="326" x="45" y="885.6406"/><text fill="#000000" font-family="sans-serif" font-size="12" lengthAdjust="spacing" textLength="306" x="55" y="906.7793">Aktualisierung der LED-Matrix mit Symbol anzeigen</text><rect fill="#F1F1F1" height="33.9688" rx="12.5" ry="12.5" style="stroke:#181818;stroke-width:0.5;" width="175" x="391" y="407.875"/><text fill="#000000" font-family="sans-serif" font-size="12" lengthAdjust="spacing" textLength="155" x="401" y="429.0137">Ung端ltige Daten anzeigen</text><polygon fill="#F1F1F1" points="343.25,925.6094,355.25,937.6094,343.25,949.6094,331.25,937.6094,343.25,925.6094" style="stroke:#181818;stroke-width:0.5;"/><polygon fill="#F1F1F1" points="330.25,275.9063,356.25,275.9063,368.25,287.9063,356.25,299.9063,330.25,299.9063,318.25,287.9063,330.25,275.9063" style="stroke:#181818;stroke-width:0.5;"/><text fill="#000000" font-family="sans-serif" font-size="11" lengthAdjust="spacing" textLength="26" x="330.25" y="291.7144">True</text><ellipse cx="24" cy="330.9063" fill="none" rx="11" ry="11" style="stroke:#222222;stroke-width:1.0;"/><ellipse cx="24" cy="330.9063" fill="#222222" rx="6" ry="6" style="stroke:#111111;stroke-width:1.0;"/><line style="stroke:#181818;stroke-width:1.0;" x1="343.25" x2="343.25" y1="30" y2="50"/><polygon fill="#181818" points="339.25,40,343.25,50,347.25,40,343.25,44" style="stroke:#181818;stroke-width:1.0;"/><line style="stroke:#181818;stroke-width:1.0;" x1="343.25" x2="343.25" y1="83.9688" y2="103.9688"/><polygon fill="#181818" points="339.25,93.9688,343.25,103.9688,347.25,93.9688,343.25,97.9688" style="stroke:#181818;stroke-width:1.0;"/><line style="stroke:#181818;stroke-width:1.0;" x1="266.25" x2="223" y1="169.9375" y2="169.9375"/><line style="stroke:#181818;stroke-width:1.0;" x1="223" x2="223" y1="169.9375" y2="191.9375"/><polygon fill="#181818" points="219,181.9375,223,191.9375,227,181.9375,223,185.9375" style="stroke:#181818;stroke-width:1.0;"/><line style="stroke:#181818;stroke-width:1.0;" x1="420.25" x2="463.5" y1="169.9375" y2="169.9375"/><line style="stroke:#181818;stroke-width:1.0;" x1="463.5" x2="463.5" y1="169.9375" y2="191.9375"/><polygon fill="#181818" points="459.5,181.9375,463.5,191.9375,467.5,181.9375,463.5,185.9375" style="stroke:#181818;stroke-width:1.0;"/><line style="stroke:#181818;stroke-width:1.0;" x1="223" x2="223" y1="225.9063" y2="243.9063"/><line style="stroke:#181818;stroke-width:1.0;" x1="223" x2="331.25" y1="243.9063" y2="243.9063"/><polygon fill="#181818" points="321.25,239.9063,331.25,243.9063,321.25,247.9063,325.25,243.9063" style="stroke:#181818;stroke-width:1.0;"/><line style="stroke:#181818;stroke-width:1.0;" x1="463.5" x2="463.5" y1="225.9063" y2="243.9063"/><line style="stroke:#181818;stroke-width:1.0;" x1="463.5" x2="355.25" y1="243.9063" y2="243.9063"/><polygon fill="#181818" points="365.25,239.9063,355.25,243.9063,365.25,247.9063,361.25,243.9063" style="stroke:#181818;stroke-width:1.0;"/><line style="stroke:#181818;stroke-width:1.0;" x1="343.25" x2="343.25" y1="137.9375" y2="157.9375"/><polygon fill="#181818" points="339.25,147.9375,343.25,157.9375,347.25,147.9375,343.25,151.9375" style="stroke:#181818;stroke-width:1.0;"/><line style="stroke:#181818;stroke-width:1.0;" x1="208" x2="208" y1="441.8438" y2="461.8438"/><polygon fill="#181818" points="204,451.8438,208,461.8438,212,451.8438,208,455.8438" style="stroke:#181818;stroke-width:1.0;"/><line style="stroke:#181818;stroke-width:1.0;" x1="208" x2="208" y1="495.8125" y2="515.8125"/><polygon fill="#181818" points="204,505.8125,208,515.8125,212,505.8125,208,509.8125" style="stroke:#181818;stroke-width:1.0;"/><line style="stroke:#181818;stroke-width:1.0;" x1="208" x2="208" y1="549.7813" y2="569.7813"/><polygon fill="#181818" points="204,559.7813,208,569.7813,212,559.7813,208,563.7813" style="stroke:#181818;stroke-width:1.0;"/><line style="stroke:#181818;stroke-width:1.0;" x1="208" x2="208" y1="603.75" y2="631.332"/><polygon fill="#181818" points="204,621.332,208,631.332,212,621.332,208,625.332" style="stroke:#181818;stroke-width:1.0;"/><line style="stroke:#181818;stroke-width:1.0;" x1="208" x2="208" y1="709.3008" y2="733.7031"/><polygon fill="#181818" points="204,723.7031,208,733.7031,212,723.7031,208,727.7031" style="stroke:#181818;stroke-width:1.0;"/><line style="stroke:#181818;stroke-width:1.0;" x1="302" x2="337.5" y1="697.3008" y2="697.3008"/><polygon fill="#181818" points="333.5,740.6875,337.5,750.6875,341.5,740.6875,337.5,744.6875" style="stroke:#181818;stroke-width:1.0;"/><line style="stroke:#181818;stroke-width:1.0;" x1="337.5" x2="337.5" y1="697.3008" y2="799.6719"/><line style="stroke:#181818;stroke-width:1.0;" x1="337.5" x2="220" y1="799.6719" y2="799.6719"/><polygon fill="#181818" points="230,795.6719,220,799.6719,230,803.6719,226,799.6719" style="stroke:#181818;stroke-width:1.0;"/><line style="stroke:#181818;stroke-width:1.0;" x1="208" x2="208" y1="767.6719" y2="787.6719"/><polygon fill="#181818" points="204,777.6719,208,787.6719,212,777.6719,208,781.6719" style="stroke:#181818;stroke-width:1.0;"/><line style="stroke:#181818;stroke-width:1.0;" x1="208" x2="208" y1="665.3008" y2="685.3008"/><polygon fill="#181818" points="204,675.3008,208,685.3008,212,675.3008,208,679.3008" style="stroke:#181818;stroke-width:1.0;"/><line style="stroke:#181818;stroke-width:1.0;" x1="208" x2="208" y1="811.6719" y2="831.6719"/><polygon fill="#181818" points="204,821.6719,208,831.6719,212,821.6719,208,825.6719" style="stroke:#181818;stroke-width:1.0;"/><line style="stroke:#181818;stroke-width:1.0;" x1="208" x2="208" y1="865.6406" y2="885.6406"/><polygon fill="#181818" points="204,875.6406,208,885.6406,212,875.6406,208,879.6406" style="stroke:#181818;stroke-width:1.0;"/><line style="stroke:#181818;stroke-width:1.0;" x1="274.25" x2="208" y1="385.875" y2="385.875"/><line style="stroke:#181818;stroke-width:1.0;" x1="208" x2="208" y1="385.875" y2="407.875"/><polygon fill="#181818" points="204,397.875,208,407.875,212,397.875,208,401.875" style="stroke:#181818;stroke-width:1.0;"/><line style="stroke:#181818;stroke-width:1.0;" x1="412.25" x2="478.5" y1="385.875" y2="385.875"/><line style="stroke:#181818;stroke-width:1.0;" x1="478.5" x2="478.5" y1="385.875" y2="407.875"/><polygon fill="#181818" points="474.5,397.875,478.5,407.875,482.5,397.875,478.5,401.875" style="stroke:#181818;stroke-width:1.0;"/><line style="stroke:#181818;stroke-width:1.0;" x1="208" x2="208" y1="919.6094" y2="937.6094"/><line style="stroke:#181818;stroke-width:1.0;" x1="208" x2="331.25" y1="937.6094" y2="937.6094"/><polygon fill="#181818" points="321.25,933.6094,331.25,937.6094,321.25,941.6094,325.25,937.6094" style="stroke:#181818;stroke-width:1.0;"/><line style="stroke:#181818;stroke-width:1.0;" x1="478.5" x2="478.5" y1="441.8438" y2="937.6094"/><line style="stroke:#181818;stroke-width:1.0;" x1="478.5" x2="355.25" y1="937.6094" y2="937.6094"/><polygon fill="#181818" points="365.25,933.6094,355.25,937.6094,365.25,941.6094,361.25,937.6094" style="stroke:#181818;stroke-width:1.0;"/><line style="stroke:#181818;stroke-width:1.0;" x1="343.25" x2="343.25" y1="353.875" y2="373.875"/><polygon fill="#181818" points="339.25,363.875,343.25,373.875,347.25,363.875,343.25,367.875" style="stroke:#181818;stroke-width:1.0;"/><line style="stroke:#181818;stroke-width:1.0;" x1="343.25" x2="343.25" y1="299.9063" y2="319.9063"/><polygon fill="#181818" points="339.25,309.9063,343.25,319.9063,347.25,309.9063,343.25,313.9063" style="stroke:#181818;stroke-width:1.0;"/><line style="stroke:#181818;stroke-width:1.0;" x1="343.25" x2="343.25" y1="949.6094" y2="959.6094"/><line style="stroke:#181818;stroke-width:1.0;" x1="343.25" x2="588" y1="959.6094" y2="959.6094"/><polygon fill="#181818" points="584,623.75,588,613.75,592,623.75,588,619.75" style="stroke:#181818;stroke-width:1.0;"/><line style="stroke:#181818;stroke-width:1.0;" x1="588" x2="588" y1="287.9063" y2="959.6094"/><line style="stroke:#181818;stroke-width:1.0;" x1="588" x2="368.25" y1="287.9063" y2="287.9063"/><polygon fill="#181818" points="378.25,283.9063,368.25,287.9063,378.25,291.9063,374.25,287.9063" style="stroke:#181818;stroke-width:1.0;"/><line style="stroke:#181818;stroke-width:1.0;" x1="318.25" x2="24" y1="287.9063" y2="287.9063"/><line style="stroke:#181818;stroke-width:1.0;" x1="24" x2="24" y1="287.9063" y2="319.9063"/><polygon fill="#181818" points="20,309.9063,24,319.9063,28,309.9063,24,313.9063" style="stroke:#181818;stroke-width:1.0;"/><line style="stroke:#181818;stroke-width:1.0;" x1="343.25" x2="343.25" y1="255.9063" y2="275.9063"/><polygon fill="#181818" points="339.25,265.9063,343.25,275.9063,347.25,265.9063,343.25,269.9063" style="stroke:#181818;stroke-width:1.0;"/><!--SRC=[XPB1Ri8m38RlUGeVuL1fEqn8S9XW7HeII9EwSK-fstgaBafIDlPit7YnkIq8A9jsoI7-_EVtxpYlhLV3MR4fhIUqo92WXGd5XagVurekAavWKIQLmP6GJ9wq8ITmnPdG3YOlzuE7k-bo1X6oAwqRAKKfz9wYPH1gZmJRqkQQ4-J7FeWgG-z3znN0S8ecOLt8JOhE6yoGHmgDG-Wn4ZVCMGQjysZCqTFllPnGgjHdJaOqtco5ZKPhB14L1bqvWww6fLBxl2ncXxtnb7LyTXIsQBMDaNmjSbFLLGhpvp1OQ6_f2pH_8sL_aqzX49BR6Btx3nq44MOohm_6BTXjcDCgzvgrsKc0IMLNUNhOv_PKhsSTItpGcKMWBDRsPkQE1M8uhyAjH9VYatGRUzFoAldYqT1uxQkhps8laod8GxGhuj9S3NAzVb5vv-DM4C8sZ4kwULdEPkLAELzkVW00]--></g></svg>